<svg xmlns="http://www.w3.org/2000/svg" width="21" height="21" viewBox="0 0 21 21">
    <defs>
        <radialGradient id="a" cx="18.445%" cy="54.751%" r="69.65%" fx="18.445%" fy="54.751%" gradientTransform="matrix(.991 -.06821 .86519 3.26236 -.472 -1.226)">
            <stop offset="0%" stop-color="#7FC579"/>
            <stop offset="100%" stop-color="#8FE388" stop-opacity="0"/>
        </radialGradient>
        <radialGradient id="b" fx="50%" fy="50%">
            <stop offset="0%" stop-color="#4DA173"/>
            <stop offset="100%" stop-color="#8FE388" stop-opacity="0"/>
        </radialGradient>
    </defs>
    <g fill="none" fill-rule="evenodd">
        <circle cx="10.5" cy="10.5" r="10.5" fill="#8FE388"/>
        <path fill="url(#a)" d="M10.5 21c.505 0-7.35-7.424-2.457-20.64C8.126.135 0 2.31 0 10.5 0 16.716 5.261 21 10.5 21z"/>
        <path fill="#4DA173" fill-rule="nonzero" d="M13.469 13.117a.538.538 0 0 1 .896.597c-.99 1.488-2.247 2.26-3.736 2.26-1.487 0-2.753-.77-3.763-2.255a.538.538 0 0 1 .89-.606c.822 1.207 1.769 1.784 2.873 1.784 1.103 0 2.038-.575 2.84-1.78z"/>
        <path fill="#575757" fill-rule="nonzero" d="M13.675 10.155a.538.538 0 0 1-.919-.56c.529-.868 1.228-1.336 2.068-1.336.837 0 1.54.466 2.08 1.33a.538.538 0 0 1-.914.57c-.357-.571-.737-.823-1.166-.823-.428 0-.801.25-1.149.82zM5.401 10.155a.538.538 0 0 1-.919-.56c.529-.868 1.228-1.336 2.068-1.336.837 0 1.54.466 2.08 1.33a.538.538 0 0 1-.914.57c-.357-.571-.737-.823-1.166-.823-.428 0-.801.25-1.149.82z"/>
        <path fill="url(#b)" d="M18.008 12.085a1.616 1.616 0 1 1-3.231 0 1.616 1.616 0 0 1 3.231 0M4.815 13.7a1.615 1.615 0 1 1 0-3.23 1.615 1.615 0 0 1 0 3.23z"/>
    </g>
</svg>
