<svg xmlns="http://www.w3.org/2000/svg" width="25" height="23" viewBox="0 0 25 23">
    <path fill="#EE5291" fill-rule="evenodd" d="M19.78 23a1.17 1.17 0 0 1-.588-.18l-6.138-3.584c-.276-.162-.833-.162-1.11 0L5.808 22.82c-.454.266-.902.222-1.148-.074-.115-.14-.23-.397-.128-.82l1.638-6.738c.079-.318-.086-.803-.343-1.017l-5.43-4.52c-.474-.395-.412-.771-.363-.916.048-.142.227-.482.85-.533l7.15-.579c.338-.028.765-.326.897-.628l2.78-6.38C11.953.06 12.343 0 12.5 0c.156 0 .546.06.789.616l2.78 6.38c.132.3.559.599.897.627l7.15.58c.623.05.803.39.851.532.049.145.11.521-.363.915l-5.431 4.521c-.256.214-.42.7-.343 1.018l1.638 6.737c.104.423-.013.68-.128.82a.707.707 0 0 1-.56.254"/>
</svg>
